<svg xmlns="http://www.w3.org/2000/svg" width="382.42584228515625" height="350.0973205566406" viewBox="-76.72209167480469 -80.94467163085938 382.42584228515625 350.0973205566406"><title>Neo4j Graph Visualization</title><desc>Created using Neo4j (http://www.neo4j.com/)</desc><g class="layer relationships"><g class="relationship" transform="translate(24.651652237794874 -17.501045823573374) rotate(382.6268322709185)"><path class="outline" fill="#A5ABB6" stroke="none" d="M 24.018736134675446,-6.953439040707552 L 24.277555179777966,-5.987513214418485 A 155.20393212162313 155.20393212162313 0 0 1 52.79386413430994,-10.837844258181832 L 52.71877953823018,-11.835021425706003 A 156.20393212162313 156.20393212162313 0 0 0 24.018736134675446,-6.953439040707552 Z M 72.10269280669485,-12.08825419134692 L 72.05368377078221,-11.0894558561466 A 155.20393212162313 155.20393212162313 0 0 1 100.68696912243091,-6.98573101212073 L 99.98647758321437,-4.068658574986873 L 107.61022006561265,-5.837429493471129 L 101.62095784138629,-10.875160928299204 L 100.92046630216974,-7.9580884911653476 A 156.20393212162313 156.20393212162313 0 0 0 72.10269280669485,-12.08825419134692"/><text text-anchor="middle" pointer-events="none" font-size="8px" fill="#000000" x="62.41333545350504" y="-8.76267367305465" font-family="sans-serif">trek</text></g><g class="relationship" transform="translate(146.4170110187356 33.251898874729015) rotate(377.0087976766504)"><path class="outline" fill="#A5ABB6" stroke="none" d="M 21.40063509461097,-12.933012701892217 L 21.90063509461097,-12.06698729810778 A 89.51639029018826 89.51639029018826 0 0 1 54.87767530837377,-23.281270626597916 L 54.7460663941499,-24.272572343380872 A 90.51639029018826 90.51639029018826 0 0 0 21.40063509461097,-12.933012701892217 Z M 74.14618054367638,-24.74970804490472 L 74.06346237208373,-23.753135065094227 A 89.51639029018826 89.51639029018826 0 0 1 107.55191729212314,-14.173535965952892 L 106.18145026636886,-11.50486211339612 L 114.00723411904798,-11.420558547952353 L 109.37920665979551,-17.73176776936192 L 108.00873963404123,-15.06309391680515 A 90.51639029018826 90.51639029018826 0 0 0 74.14618054367638,-24.74970804490472"/><text text-anchor="middle" pointer-events="none" font-size="8px" fill="#000000" x="64.44559329169465" y="-21.53269695152919" font-family="sans-serif">trek</text></g><g class="relationship" transform="translate(276.7037656335359 73.1064334239456) rotate(217.2828742666827)"><path class="outline" fill="#A5ABB6" stroke="none" d="M 21.40063509461097,12.933012701892217 L 21.90063509461097,12.06698729810778 A 42.60680649338851 42.60680649338851 0 0 0 32.234325181408735,16.338853208486178 L 31.976861314418404,17.305141135138676 A 43.60680649338851 43.60680649338851 0 0 1 21.40063509461097,12.933012701892217 Z M 51.36085659038662,18.005542624638437 L 51.17380280440671,17.023192951074805 A 42.60680649338851 42.60680649338851 0 0 0 61.78885286081346,13.508267423241524 L 60.48027218680364,10.808708826061611 L 68.30591969990157,10.904838950081906 L 63.53362709282657,17.107678886148072 L 62.225046418816746,14.40812028896816 A 43.60680649338851 43.60680649338851 0 0 1 51.36085659038662,18.005542624638437"/><text text-anchor="middle" pointer-events="none" font-size="8px" fill="#000000" x="41.647476803892644" y="21.247104564461587" transform="rotate(180 41.647476803892644 18.247104564461587)" font-family="sans-serif">trek</text></g><g class="relationship" transform="translate(204.456546842073 18.10292071954492) rotate(466.76031131114394)"><path class="outline" fill="#A5ABB6" stroke="none" d="M 25 0.5 L 59.23767404303791 0.5 L 59.23767404303791 -0.5 L 25 -0.5 Z M 78.57361154303791 0.5 L 112.81128558607583 0.5 L 112.81128558607583 3.5 L 119.81128558607583 0 L 112.81128558607583 -3.5 L 112.81128558607583 -0.5 L 78.57361154303791 -0.5 Z"/><text text-anchor="middle" pointer-events="none" font-size="8px" fill="#000000" x="68.90564279303791" y="3" transform="rotate(180 68.90564279303791 0)" font-family="sans-serif">trek</text></g><g class="relationship" transform="translate(24.651652237794874 -17.501045823573374) rotate(382.6268322709185)"><path class="outline" fill="#A5ABB6" stroke="none" d="M 24.018736134675446,6.953439040707552 L 24.277555179777966,5.987513214418485 A 155.20393212162313 155.20393212162313 0 0 0 51.46448084398143,10.731999830536552 L 51.38083085092907,11.728495028047462 A 156.20393212162313 156.20393212162313 0 0 1 24.018736134675446,6.953439040707552 Z M 73.44296773815138,12.016716289797984 L 73.3853784129128,11.018375932195141 A 155.20393212162313 155.20393212162313 0 0 0 100.68696912243091,6.98573101212073 L 99.98647758321437,4.068658574986873 L 107.61022006561265,5.837429493471129 L 101.62095784138629,10.875160928299204 L 100.92046630216974,7.9580884911653476 A 156.20393212162313 156.20393212162313 0 0 1 73.44296773815138,12.016716289797984"/><text text-anchor="middle" pointer-events="none" font-size="8px" fill="#000000" x="62.41333545350505" y="14.76267367305465" font-family="sans-serif">road</text></g><g class="relationship" transform="translate(146.4170110187356 33.251898874729015) rotate(377.0087976766504)"><path class="outline" fill="#A5ABB6" stroke="none" d="M 25 0.5 L 41.39066957017718 0.5 L 41.39066957017718 -0.5 L 25 -0.5 Z M 87.85551332017718 0.5 L 104.24618289035436 0.5 L 104.24618289035436 3.5 L 111.24618289035436 0 L 104.24618289035436 -3.5 L 104.24618289035436 -0.5 L 87.85551332017718 -0.5 Z"/><text text-anchor="middle" pointer-events="none" font-size="8px" fill="#000000" x="64.62309144517718" y="3" font-family="sans-serif">twowheeler</text></g><g class="relationship" transform="translate(146.4170110187356 33.251898874729015) rotate(377.0087976766504)"><path class="outline" fill="#A5ABB6" stroke="none" d="M 21.40063509461097,12.933012701892217 L 21.90063509461097,12.06698729810778 A 89.51639029018826 89.51639029018826 0 0 0 53.56013853538062,23.096375818974465 L 53.413811235297786,24.085612050241025 A 90.51639029018826 90.51639029018826 0 0 1 21.40063509461097,12.933012701892217 Z M 75.48601576808456,24.628466422785337 L 75.38849546816893,23.633232886822853 A 89.51639029018826 89.51639029018826 0 0 0 107.55191729212314,14.173535965952892 L 106.18145026636886,11.50486211339612 L 114.00723411904798,11.420558547952353 L 109.37920665979551,17.73176776936192 L 108.00873963404123,15.06309391680515 A 90.51639029018826 90.51639029018826 0 0 1 75.48601576808456,24.628466422785337"/><text text-anchor="middle" pointer-events="none" font-size="8px" fill="#000000" x="64.44559329169465" y="27.53269695152919" font-family="sans-serif">road</text></g><g class="relationship" transform="translate(276.7037656335359 73.1064334239456) rotate(217.2828742666827)"><path class="outline" fill="#A5ABB6" stroke="none" d="M 25 0.5 L 25.787839421533747 0.5 L 25.787839421533747 -0.5 L 25 -0.5 Z M 58.01440192153375 0.5 L 58.80224134306749 0.5 L 58.80224134306749 3.5 L 65.8022413430675 0 L 58.80224134306749 -3.5 L 58.80224134306749 -0.5 L 58.01440192153375 -0.5 Z"/><text text-anchor="middle" pointer-events="none" font-size="8px" fill="#000000" x="41.90112067153375" y="3" transform="rotate(180 41.90112067153375 0)" font-family="sans-serif">twow…</text></g><g class="relationship" transform="translate(276.7037656335359 73.1064334239456) rotate(217.2828742666827)"><path class="outline" fill="#A5ABB6" stroke="none" d="M 21.40063509461097,-12.933012701892217 L 21.90063509461097,-12.06698729810778 A 42.60680649338851 42.60680649338851 0 0 1 30.96202091645981,-15.978617176668791 L 30.674695523350493,-16.936450209339192 A 43.60680649338851 43.60680649338851 0 0 0 21.40063509461097,-12.933012701892217 Z M 52.68623568225016,-17.731792722272566 L 52.46878803809895,-16.755720736170574 A 42.60680649338851 42.60680649338851 0 0 1 61.78885286081346,-13.508267423241524 L 60.48027218680364,-10.808708826061611 L 68.30591969990157,-10.904838950081906 L 63.53362709282657,-17.107678886148072 L 62.225046418816746,-14.40812028896816 A 43.60680649338851 43.60680649338851 0 0 0 52.68623568225016,-17.731792722272566"/><text text-anchor="middle" pointer-events="none" font-size="8px" fill="#000000" x="41.64747680389264" y="-15.247104564461587" transform="rotate(180 41.64747680389264 -18.247104564461587)" font-family="sans-serif">road</text></g><g class="relationship" transform="translate(24.651652237794874 -17.501045823573374) rotate(335.6262951694657)"><path class="outline" fill="#A5ABB6" stroke="none" d="M 21.40063509461097,12.933012701892217 L 21.90063509461097,12.06698729810778 A 34.880083277967636 34.880083277967636 0 0 0 27.375435242242265,14.623544828958721 L 27.032395880896747,15.562865858515522 A 35.880083277967636 35.880083277967636 0 0 1 21.40063509461097,12.933012701892217 Z M 48.980140024563845,16.4209259818943 L 48.71148225093799,15.457690288686038 A 34.880083277967636 34.880083277967636 0 0 0 54.36916705587868,13.33636388452347 L 53.07658209822376,10.629109901749736 L 60.90152384195987,10.771541313790955 L 56.092613666085235,16.946035861555114 L 54.80002870843032,14.23878187878138 A 35.880083277967636 35.880083277967636 0 0 1 48.980140024563845,16.4209259818943"/><text text-anchor="middle" pointer-events="none" font-size="8px" fill="#000000" x="37.95852719580598" y="20.213024707863802" font-family="sans-serif">road</text></g><g class="relationship" transform="translate(100.6749234527783 -51.944670595173164) rotate(394.0174518826407)"><path class="outline" fill="#A5ABB6" stroke="none" d="M 25 0.5 L 49.436524703567635 0.5 L 49.436524703567635 -0.5 L 25 -0.5 Z M 68.77246220356764 0.5 L 93.20898690713527 0.5 L 93.20898690713527 3.5 L 100.20898690713527 0 L 93.20898690713527 -3.5 L 93.20898690713527 -0.5 L 68.77246220356764 -0.5 Z"/><text text-anchor="middle" pointer-events="none" font-size="8px" fill="#000000" x="59.104493453567635" y="3" font-family="sans-serif">trek</text></g><g class="relationship" transform="translate(24.651652237794874 -17.501045823573374) rotate(335.6262951694657)"><path class="outline" fill="#A5ABB6" stroke="none" d="M 25 0.5 L 28.563018099203823 0.5 L 28.563018099203823 -0.5 L 25 -0.5 Z M 47.89895559920382 0.5 L 51.46197369840765 0.5 L 51.46197369840765 3.5 L 58.46197369840765 0 L 51.46197369840765 -3.5 L 51.46197369840765 -0.5 L 47.89895559920382 -0.5 Z"/><text text-anchor="middle" pointer-events="none" font-size="8px" fill="#000000" x="38.23098684920382" y="3" font-family="sans-serif">trek</text></g><g class="relationship" transform="translate(24.651652237794874 -17.501045823573374) rotate(335.6262951694657)"><path class="outline" fill="#A5ABB6" stroke="none" d="M 21.40063509461097,-12.933012701892217 L 21.90063509461097,-12.06698729810778 A 34.880083277967636 34.880083277967636 0 0 1 22.97673259355683,-12.663220699703906 L 22.507583939018655,-13.546339910198743 A 35.880083277967636 35.880083277967636 0 0 0 21.40063509461097,-12.933012701892217 Z M 53.6485749699449,-14.763815493621927 L 53.24980504163941,-13.846764489435554 A 34.880083277967636 34.880083277967636 0 0 1 54.36916705587868,-13.33636388452347 L 53.07658209822376,-10.629109901749736 L 60.90152384195987,-10.771541313790955 L 56.092613666085235,-16.946035861555114 L 54.80002870843032,-14.23878187878138 A 35.880083277967636 35.880083277967636 0 0 0 53.6485749699449,-14.763815493621927"/><text text-anchor="middle" pointer-events="none" font-size="8px" fill="#000000" x="37.95852719580597" y="-14.213024707863802" font-family="sans-serif">Publi…</text></g><g class="relationship" transform="translate(100.6749234527783 -51.944670595173164) rotate(493.9017575898161)"><path class="outline" fill="#A5ABB6" stroke="none" d="M 24.018736134675446,-6.953439040707552 L 24.277555179777966,-5.987513214418485 A 189.52835355743196 189.52835355743196 0 0 1 61.496601475262416,-12.075690320260207 L 61.43415962437325,-13.07373892391513 A 190.52835355743196 190.52835355743196 0 0 0 24.018736134675446,-6.953439040707552 Z M 80.81130601839334,-13.298641056858713 L 80.77204570248044,-12.299412040269203 A 189.52835355743196 189.52835355743196 0 0 1 118.12237224188448,-7.076729298861192 L 117.4133817072158,-4.161710873233281 L 125.04224699079438,-5.908254455572273 L 119.06769295477604,-10.96342053303174 L 118.35870242010736,-8.04840210740383 A 190.52835355743196 190.52835355743196 0 0 0 80.81130601839334,-13.298641056858713"/><text text-anchor="middle" pointer-events="none" font-size="8px" fill="#000000" x="71.12567454072126" y="-9.932736963881723" transform="rotate(180 71.12567454072126 -12.932736963881723)" font-family="sans-serif">trek</text></g><g class="relationship" transform="translate(-2.876892517084152 55.65498106383606) rotate(422.0196487090426)"><path class="outline" fill="#A5ABB6" stroke="none" d="M 24.018736134675446,-6.953439040707552 L 24.277555179777966,-5.987513214418485 A 114.84679585836173 114.84679585836173 0 0 1 42.6365732968352,-9.337059346634007 L 42.53761085008044,-10.332150515388065 A 115.84679585836173 115.84679585836173 0 0 0 24.018736134675446,-6.953439040707552 Z M 61.93236218793341,-10.629071673289843 L 61.86390739026506,-9.631417454296013 A 114.84679585836173 114.84679585836173 0 0 1 80.31685644150438,-6.845438842274488 L 79.62946861249517,-3.925250839331869 L 87.2451930865387,-5.728231908410099 L 81.23337354685,-10.73902284619798 L 80.5459857178408,-7.818834843255361 A 115.84679585836173 115.84679585836173 0 0 0 61.93236218793341,-10.629071673289843"/><text text-anchor="middle" pointer-events="none" font-size="8px" fill="#000000" x="52.23641492963243" y="-7.387307979512869" font-family="sans-serif">trek</text></g><g class="relationship" transform="translate(49.47299938306662 154.19231407379465) rotate(361.3004095053897)"><path class="outline" fill="#A5ABB6" stroke="none" d="M 24.018736134675446,6.953439040707552 L 24.277555179777966,5.987513214418485 A 118.18201983978874 118.18201983978874 0 0 0 30.131066096651914,7.397178213675872 L 29.921776674793342,8.375031954221 A 119.18201983978874 119.18201983978874 0 0 1 24.018736134675446,6.953439040707552 Z M 76.27966123874516,9.074844517531389 L 76.09998356115142,8.091118980516868 A 118.18201983978874 118.18201983978874 0 0 0 81.99337776838712,6.858783724909183 L 81.30474344561543,3.938889416975971 L 88.92123687402656,5.738619356430771 L 82.91155686541603,10.7519761354868 L 82.22292254264434,7.832081827553588 A 119.18201983978874 119.18201983978874 0 0 1 76.27966123874516,9.074844517531389"/><text text-anchor="middle" pointer-events="none" font-size="8px" fill="#000000" x="53.073908556831825" y="13.500947256825214" font-family="sans-serif">twowheeler</text></g><g class="relationship" transform="translate(100.6749234527783 -51.944670595173164) rotate(493.9017575898161)"><path class="outline" fill="#A5ABB6" stroke="none" d="M 24.018736134675446,6.953439040707552 L 24.277555179777966,5.987513214418485 A 189.52835355743196 189.52835355743196 0 0 0 48.03583961796992,10.749943669712877 L 47.902375349565716,11.740997295436188 A 190.52835355743196 190.52835355743196 0 0 1 24.018736134675446,6.953439040707552 Z M 94.37037792745163,12.280331244867426 L 94.25995197316581,11.286446891121955 A 189.52835355743196 189.52835355743196 0 0 0 118.12237224188448,7.076729298861192 L 117.4133817072158,4.161710873233281 L 125.04224699079438,5.908254455572273 L 119.06769295477604,10.96342053303174 L 118.35870242010736,8.04840210740383 A 190.52835355743196 190.52835355743196 0 0 1 94.37037792745163,12.280331244867426"/><text text-anchor="middle" pointer-events="none" font-size="8px" fill="#000000" x="71.1256745407213" y="15.932736963881723" transform="rotate(180 71.1256745407213 12.932736963881723)" font-family="sans-serif">twowheeler</text></g><g class="relationship" transform="translate(-2.876892517084152 55.65498106383606) rotate(422.0196487090426)"><path class="outline" fill="#A5ABB6" stroke="none" d="M 24.018736134675446,6.953439040707552 L 24.277555179777966,5.987513214418485 A 114.84679585836173 114.84679585836173 0 0 0 29.306666840596236,7.214280393825163 L 29.091637538370136,8.190887991166164 A 115.84679585836173 115.84679585836173 0 0 1 24.018736134675446,6.953439040707552 Z M 75.43758147811606,8.900414558376255 L 75.25254840834174,7.917682263654086 A 114.84679585836173 114.84679585836173 0 0 0 80.31685644150438,6.845438842274488 L 79.62946861249517,3.925250839331869 L 87.2451930865387,5.728231908410099 L 81.23337354685,10.73902284619798 L 80.5459857178408,7.818834843255361 A 115.84679585836173 115.84679585836173 0 0 1 75.43758147811606,8.900414558376255"/><text text-anchor="middle" pointer-events="none" font-size="8px" fill="#000000" x="52.23641492963243" y="13.387307979512869" font-family="sans-serif">twowheeler</text></g><g class="relationship" transform="translate(49.47299938306662 154.19231407379465) rotate(361.3004095053897)"><path class="outline" fill="#A5ABB6" stroke="none" d="M 24.018736134675446,-6.953439040707552 L 24.277555179777966,-5.987513214418485 A 118.18201983978874 118.18201983978874 0 0 1 43.47187252697292,-9.463988607515958 L 43.37546665921511,-10.45933071386024 A 119.18201983978874 119.18201983978874 0 0 0 24.018736134675446,-6.953439040707552 Z M 62.76918738698576,-10.752095785914037 L 62.70286971008608,-9.754297226218426 A 118.18201983978874 118.18201983978874 0 0 1 81.99337776838712,-6.858783724909183 L 81.30474344561543,-3.938889416975971 L 88.92123687402656,-5.738619356430771 L 82.91155686541603,-10.7519761354868 L 82.22292254264434,-7.832081827553588 A 119.18201983978874 119.18201983978874 0 0 0 62.76918738698576,-10.752095785914037"/><text text-anchor="middle" pointer-events="none" font-size="8px" fill="#000000" x="53.073908556831796" y="-7.500947256825214" font-family="sans-serif">trek</text></g><g class="relationship" transform="translate(100.6749234527783 -51.944670595173164) rotate(421.76862307509856)"><path class="outline" fill="#A5ABB6" stroke="none" d="M 25 0.5 L 35.18178312198889 0.5 L 35.18178312198889 -0.5 L 25 -0.5 Z M 54.51772062198889 0.5 L 64.69950374397779 0.5 L 64.69950374397779 3.5 L 71.69950374397779 0 L 64.69950374397779 -3.5 L 64.69950374397779 -0.5 L 54.51772062198889 -0.5 Z"/><text text-anchor="middle" pointer-events="none" font-size="8px" fill="#000000" x="44.84975187198889" y="3" font-family="sans-serif">trek</text></g><g class="relationship" transform="translate(-2.876892517084152 55.65498106383606) rotate(470.5303485794325)"><path class="outline" fill="#A5ABB6" stroke="none" d="M 24.018736134675446,-6.953439040707552 L 24.277555179777966,-5.987513214418485 A 147.20071495262835 147.20071495262835 0 0 1 37.36335907505704,-8.86260819267116 L 37.19343772246566,-9.848065819326678 A 148.20071495262835 148.20071495262835 0 0 0 24.018736134675446,-6.953439040707552 Z M 83.61936046593601,-10.472808789966365 L 83.47601799413687,-9.483135644034576 A 147.20071495262835 147.20071495262835 0 0 1 96.6344484455722,-6.961203294740899 L 95.93624779903924,-4.043581685076453 L 103.55859897587807,-5.818338721108053 L 97.5653826409495,-10.851365440960159 L 96.86718199441653,-7.933743831295714 A 148.20071495262835 148.20071495262835 0 0 0 83.61936046593601,-10.472808789966365"/><text text-anchor="middle" pointer-events="none" font-size="8px" fill="#000000" x="60.38850902760846" y="-8.489884595014672" transform="rotate(180 60.38850902760846 -11.489884595014672)" font-family="sans-serif">twowheeler</text></g><g class="relationship" transform="translate(-47.72208618922466 175.40549559936812) rotate(347.6880559706176)"><path class="outline" fill="#A5ABB6" stroke="none" d="M 21.40063509461097,12.933012701892217 L 21.90063509461097,12.06698729810778 A 51.671080270956175 51.671080270956175 0 0 0 36.53759407128473,17.76148016180108 L 36.3208658531,18.73771214214308 A 52.671080270956175 52.671080270956175 0 0 1 21.40063509461097,12.933012701892217 Z M 55.71991525231254,19.381006522228915 L 55.56833795446422,18.392561115149192 A 51.671080270956175 51.671080270956175 0 0 0 70.5503976920224,13.680268352626625 L 69.2258140559363,10.988525758875706 L 77.05189435012223,11.0381969673842 L 72.31650920680389,17.269258477627847 L 70.99192557071778,14.577515883876929 A 52.671080270956175 52.671080270956175 0 0 1 55.71991525231254,19.381006522228915"/><text text-anchor="middle" pointer-events="none" font-size="8px" fill="#000000" x="46.00707375691532" y="22.46093781224905" font-family="sans-serif">trek</text></g><g class="relationship" transform="translate(-2.876892517084152 55.65498106383606) rotate(470.5303485794325)"><path class="outline" fill="#A5ABB6" stroke="none" d="M 24.018736134675446,6.953439040707552 L 24.277555179777966,5.987513214418485 A 147.20071495262835 147.20071495262835 0 0 0 50.771988540104246,10.545171596851276 L 50.69315797786237,11.542059625897991 A 148.20071495262835 148.20071495262835 0 0 1 24.018736134675446,6.953439040707552 Z M 70.07894539378921,11.80292971102989 L 70.02696830492006,10.80428143349036 A 147.20071495262835 147.20071495262835 0 0 0 96.6344484455722,6.961203294740899 L 95.93624779903924,4.043581685076453 L 103.55859897587807,5.818338721108053 L 97.5653826409495,10.851365440960159 L 96.86718199441653,7.933743831295714 A 148.20071495262835 148.20071495262835 0 0 1 70.07894539378921,11.80292971102989"/><text text-anchor="middle" pointer-events="none" font-size="8px" fill="#000000" x="60.388509027608436" y="14.489884595014672" transform="rotate(180 60.388509027608436 11.489884595014672)" font-family="sans-serif">trek</text></g><g class="relationship" transform="translate(-47.72208618922466 175.40549559936812) rotate(347.6880559706176)"><path class="outline" fill="#A5ABB6" stroke="none" d="M 25 0.5 L 25.679041315689936 0.5 L 25.679041315689936 -0.5 L 25 -0.5 Z M 66.80404131568994 0.5 L 67.48308263137987 0.5 L 67.48308263137987 3.5 L 74.48308263137987 0 L 67.48308263137987 -3.5 L 67.48308263137987 -0.5 L 66.80404131568994 -0.5 Z"/><text text-anchor="middle" pointer-events="none" font-size="8px" fill="#000000" x="46.241541315689936" y="3" font-family="sans-serif">twowhe…</text></g><g class="relationship" transform="translate(-47.72208618922466 175.40549559936812) rotate(347.6880559706176)"><path class="outline" fill="#A5ABB6" stroke="none" d="M 21.40063509461097,-12.933012701892217 L 21.90063509461097,-12.06698729810778 A 51.671080270956175 51.671080270956175 0 0 1 35.24784368462383,-17.457746415919452 L 35.00615468799403,-18.428100180743435 A 52.671080270956175 52.671080270956175 0 0 0 21.40063509461097,-12.933012701892217 Z M 57.052249730339966,-19.159173582935757 L 56.87537706222064,-18.17493984074219 A 51.671080270956175 51.671080270956175 0 0 1 70.5503976920224,-13.680268352626625 L 69.2258140559363,-10.988525758875706 L 77.05189435012223,-11.0381969673842 L 72.31650920680389,-17.269258477627847 L 70.99192557071778,-14.577515883876929 A 52.671080270956175 52.671080270956175 0 0 0 57.052249730339966,-19.159173582935757"/><text text-anchor="middle" pointer-events="none" font-size="8px" fill="#000000" x="46.00707375691532" y="-16.46093781224905" font-family="sans-serif">road</text></g><g class="relationship" transform="translate(-47.72208618922466 175.40549559936812) rotate(390.43641918815723)"><path class="outline" fill="#A5ABB6" stroke="none" d="M 25 0.5 L 50.737957005736476 0.5 L 50.737957005736476 -0.5 L 25 -0.5 Z M 70.07389450573648 0.5 L 95.81185151147295 0.5 L 95.81185151147295 3.5 L 102.81185151147295 0 L 95.81185151147295 -3.5 L 95.81185151147295 -0.5 L 70.07389450573648 -0.5 Z"/><text text-anchor="middle" pointer-events="none" font-size="8px" fill="#000000" x="60.405925755736476" y="3" font-family="sans-serif">trek</text></g><g class="relationship" transform="translate(62.47624953901965 240.15266688519316) rotate(320.23750919844906)"><path class="outline" fill="#A5ABB6" stroke="none" d="M 25 0.5 L 52.02063274380667 0.5 L 52.02063274380667 -0.5 L 25 -0.5 Z M 71.35657024380667 0.5 L 98.37720298761334 0.5 L 98.37720298761334 3.5 L 105.37720298761334 0 L 98.37720298761334 -3.5 L 98.37720298761334 -0.5 L 71.35657024380667 -0.5 Z"/><text text-anchor="middle" pointer-events="none" font-size="8px" fill="#000000" x="61.68860149380667" y="3" font-family="sans-serif">trek</text></g></g><g class="layer nodes"><g class="node" transform="translate(24.651652237794874,-17.501045823573374)"><circle class="outline" cx="0" cy="0" r="25" fill="#F16667" stroke="#eb2728" stroke-width="2px"/><text text-anchor="middle" pointer-events="none" font-family="sans-serif" dy="1.5625" font-size="25" fill="#FFFFFF"/><text text-anchor="middle" pointer-events="none" x="0" y="5" font-size="10px" fill="#FFFFFF" font-family="sans-serif"> Darjeeling</text></g><g class="node" transform="translate(162.69752001224603,156.7625475447957)"><circle class="outline" cx="0" cy="0" r="25" fill="#D9C8AE" stroke="#c0a378" stroke-width="2px"/><text text-anchor="middle" pointer-events="none" font-family="sans-serif" dy="1.5625" font-size="25" fill="#2A2C34"/><text text-anchor="middle" pointer-events="none" x="0" y="5" font-size="10px" fill="#2A2C34" font-family="sans-serif"> Sandak…</text></g><g class="node" transform="translate(146.4170110187356,33.251898874729015)"><circle class="outline" cx="0" cy="0" r="25" fill="#8DCC93" stroke="#5db665" stroke-width="2px"/><text text-anchor="middle" pointer-events="none" font-family="sans-serif" dy="1.5625" font-size="25" fill="#2A2C34"/><text text-anchor="middle" pointer-events="none" x="0" y="5" font-size="10px" fill="#2A2C34" font-family="sans-serif"> Tumbling</text></g><g class="node" transform="translate(276.7037656335359,73.1064334239456)"><circle class="outline" cx="0" cy="0" r="25" fill="#8DCC93" stroke="#5db665" stroke-width="2px"/><text text-anchor="middle" pointer-events="none" font-family="sans-serif" dy="1.5625" font-size="25" fill="#2A2C34"/><text text-anchor="middle" pointer-events="none" x="0" y="5" font-size="10px" fill="#2A2C34" font-family="sans-serif"> Gairibus</text></g><g class="node" transform="translate(204.456546842073,18.10292071954492)"><circle class="outline" cx="0" cy="0" r="25" fill="#8DCC93" stroke="#5db665" stroke-width="2px"/><text text-anchor="middle" pointer-events="none" font-family="sans-serif" dy="1.5625" font-size="25" fill="#2A2C34"/><text text-anchor="middle" pointer-events="none" x="0" y="5" font-size="10px" fill="#2A2C34" font-family="sans-serif"> BhikeBh…</text></g><g class="node" transform="translate(100.6749234527783,-51.944670595173164)"><circle class="outline" cx="0" cy="0" r="25" fill="#F16667" stroke="#eb2728" stroke-width="2px"/><text text-anchor="middle" pointer-events="none" font-family="sans-serif" dy="1.5625" font-size="25" fill="#FFFFFF"/><text text-anchor="middle" pointer-events="none" x="0" y="5" font-size="10px" fill="#FFFFFF" font-family="sans-serif"> Rimbik</text></g><g class="node" transform="translate(-2.876892517084152,55.65498106383606)"><circle class="outline" cx="0" cy="0" r="25" fill="#8DCC93" stroke="#5db665" stroke-width="2px"/><text text-anchor="middle" pointer-events="none" font-family="sans-serif" dy="1.5625" font-size="25" fill="#2A2C34"/><text text-anchor="middle" pointer-events="none" x="0" y="5" font-size="10px" fill="#2A2C34" font-family="sans-serif"> Sirikhola</text></g><g class="node" transform="translate(49.47299938306662,154.19231407379465)"><circle class="outline" cx="0" cy="0" r="25" fill="#8DCC93" stroke="#5db665" stroke-width="2px"/><text text-anchor="middle" pointer-events="none" font-family="sans-serif" dy="1.5625" font-size="25" fill="#2A2C34"/><text text-anchor="middle" pointer-events="none" x="0" y="5" font-size="10px" fill="#2A2C34" font-family="sans-serif"> Gurdum</text></g><g class="node" transform="translate(-47.72208618922466,175.40549559936812)"><circle class="outline" cx="0" cy="0" r="25" fill="#8DCC93" stroke="#5db665" stroke-width="2px"/><text text-anchor="middle" pointer-events="none" font-family="sans-serif" dy="1.5625" font-size="25" fill="#2A2C34"/><text text-anchor="middle" pointer-events="none" x="0" y="5" font-size="10px" fill="#2A2C34" font-family="sans-serif"> Rammam</text></g><g class="node" transform="translate(62.47624953901965,240.15266688519316)"><circle class="outline" cx="0" cy="0" r="25" fill="#D9C8AE" stroke="#c0a378" stroke-width="2px"/><text text-anchor="middle" pointer-events="none" font-family="sans-serif" dy="1.5625" font-size="25" fill="#2A2C34"/><text text-anchor="middle" pointer-events="none" x="0" y="5" font-size="10px" fill="#2A2C34" font-family="sans-serif"> Sabargr…</text></g></g></svg>