<svg xmlns="http://www.w3.org/2000/svg" width="163.1917724609375" height="243.9405517578125" viewBox="-1.8574390411376953 -21.09973907470703 163.1917724609375 243.9405517578125"><title>Neo4j Graph Visualization</title><desc>Created using Neo4j (http://www.neo4j.com/)</desc><g class="layer relationships"><g class="relationship" transform="translate(132.33433212801617 7.900261188500012) rotate(522.2376344751507)"><path class="outline" fill="#A5ABB6" stroke="none" d="M 21.40063509461097,12.933012701892217 L 21.90063509461097,12.06698729810778 A 60.018161689280745 60.018161689280745 0 0 0 39.24208296876133,18.755830481103224 L 39.031019640362985,19.733302870178953 A 61.018161689280745 61.018161689280745 0 0 1 21.40063509461097,12.933012701892217 Z M 61.091995837700765,20.41304510437314 L 60.941511463143435,19.424432716723615 A 60.018161689280745 60.018161689280745 0 0 0 78.66186537225454,13.815912873268491 L 77.32466266493897,11.130416844683099 L 85.15088989017305,11.143355894296402 L 80.44480231534196,17.396574244715683 L 79.10759960802639,14.71107821613029 A 61.018161689280745 61.018161689280745 0 0 1 61.091995837700765,20.41304510437314"/><text text-anchor="middle" pointer-events="none" font-size="8px" fill="#000000" x="50.04591640458656" y="23.579189416037003" transform="rotate(180 50.04591640458656 20.579189416037003)" font-family="sans-serif">road</text></g><g class="relationship" transform="translate(29.93026682907186 40.704427934923814) rotate(451.4977694487493)"><path class="outline" fill="#A5ABB6" stroke="none" d="M 25 0.5 L 40.15863953877136 0.5 L 40.15863953877136 -0.5 L 25 -0.5 Z M 59.49457703877136 0.5 L 74.65321657754272 0.5 L 74.65321657754272 3.5 L 81.65321657754272 0 L 74.65321657754272 -3.5 L 74.65321657754272 -0.5 L 59.49457703877136 -0.5 Z"/><text text-anchor="middle" pointer-events="none" font-size="8px" fill="#000000" x="49.82660828877136" y="3" transform="rotate(180 49.82660828877136 0)" font-family="sans-serif">trek</text></g><g class="relationship" transform="translate(27.14256173031148 147.32120572631356) rotate(385.69764708555255)"><path class="outline" fill="#A5ABB6" stroke="none" d="M 25 0.5 L 40.47276508386454 0.5 L 40.47276508386454 -0.5 L 25 -0.5 Z M 59.80870258386454 0.5 L 75.28146766772907 0.5 L 75.28146766772907 3.5 L 82.28146766772907 0 L 75.28146766772907 -3.5 L 75.28146766772907 -0.5 L 59.80870258386454 -0.5 Z"/><text text-anchor="middle" pointer-events="none" font-size="8px" fill="#000000" x="50.14073383386454" y="3" font-family="sans-serif">trek</text></g><g class="relationship" transform="translate(132.33433212801617 7.900261188500012) rotate(522.2376344751507)"><path class="outline" fill="#A5ABB6" stroke="none" d="M 25 0.5 L 40.59704298085901 0.5 L 40.59704298085901 -0.5 L 25 -0.5 Z M 59.93298048085901 0.5 L 75.53002346171802 0.5 L 75.53002346171802 3.5 L 82.53002346171802 0 L 75.53002346171802 -3.5 L 75.53002346171802 -0.5 L 59.93298048085901 -0.5 Z"/><text text-anchor="middle" pointer-events="none" font-size="8px" fill="#000000" x="50.26501173085901" y="3" transform="rotate(180 50.26501173085901 0)" font-family="sans-serif">trek</text></g><g class="relationship" transform="translate(132.33433212801617 7.900261188500012) rotate(522.2376344751507)"><path class="outline" fill="#A5ABB6" stroke="none" d="M 21.40063509461097,-12.933012701892217 L 21.90063509461097,-12.06698729810778 A 60.018161689280745 60.018161689280745 0 0 1 23.505448014746815,-12.961062319590908 L 23.03218680305633,-13.841984464566984 A 61.018161689280745 61.018161689280745 0 0 0 21.40063509461097,-12.933012701892217 Z M 77.42318157813452,-15.517878404061712 L 77.00505253372305,-14.609490765319556 A 60.018161689280745 60.018161689280745 0 0 1 78.66186537225454,-13.815912873268491 L 77.32466266493897,-11.130416844683099 L 85.15088989017305,-11.143355894296402 L 80.44480231534196,-17.396574244715683 L 79.10759960802639,-14.71107821613029 A 61.018161689280745 61.018161689280745 0 0 0 77.42318157813452,-15.517878404061712"/><text text-anchor="middle" pointer-events="none" font-size="8px" fill="#000000" x="50.04591640458657" y="-17.579189416037003" transform="rotate(180 50.04591640458657 -20.579189416037003)" font-family="sans-serif">PublicTrans…</text></g></g><g class="layer nodes"><g class="node" transform="translate(132.33433212801617,7.900261188500012)"><circle class="outline" cx="0" cy="0" r="25" fill="#F16667" stroke="#eb2728" stroke-width="2px"/><text text-anchor="middle" pointer-events="none" font-family="sans-serif" dy="1.5625" font-size="25" fill="#FFFFFF"/><text text-anchor="middle" pointer-events="none" x="0" y="5" font-size="10px" fill="#FFFFFF" font-family="sans-serif"> Darjeeling</text></g><g class="node" transform="translate(123.81333752020448,193.8408189353917)"><circle class="outline" cx="0" cy="0" r="25" fill="#D9C8AE" stroke="#c0a378" stroke-width="2px"/><text text-anchor="middle" pointer-events="none" font-family="sans-serif" dy="1.5625" font-size="25" fill="#2A2C34"/><text text-anchor="middle" pointer-events="none" x="0" y="5" font-size="10px" fill="#2A2C34" font-family="sans-serif"> Sandak…</text></g><g class="node" transform="translate(29.93026682907186,40.704427934923814)"><circle class="outline" cx="0" cy="0" r="25" fill="#F16667" stroke="#eb2728" stroke-width="2px"/><text text-anchor="middle" pointer-events="none" font-family="sans-serif" dy="1.5625" font-size="25" fill="#FFFFFF"/><text text-anchor="middle" pointer-events="none" x="0" y="5" font-size="10px" fill="#FFFFFF" font-family="sans-serif"> Rimbik</text></g><g class="node" transform="translate(27.14256173031148,147.32120572631356)"><circle class="outline" cx="0" cy="0" r="25" fill="#8DCC93" stroke="#5db665" stroke-width="2px"/><text text-anchor="middle" pointer-events="none" font-family="sans-serif" dy="1.5625" font-size="25" fill="#2A2C34"/><text text-anchor="middle" pointer-events="none" x="0" y="5" font-size="10px" fill="#2A2C34" font-family="sans-serif"> BhikeBh…</text></g></g></svg>