<svg xmlns="http://www.w3.org/2000/svg" width="261.64971923828125" height="286.0566711425781" viewBox="-32.288917541503906 -43.030548095703125 261.64971923828125 286.0566711425781"><title>Neo4j Graph Visualization</title><desc>Created using Neo4j (http://www.neo4j.com/)</desc><g class="layer relationships"><g class="relationship" transform="translate(94.26383581405048 214.02611897654037) rotate(272.87987688041204)"><path class="outline" fill="#A5ABB6" stroke="none" d="M 25 0.5 L 30.80390328580853 0.5 L 30.80390328580853 -0.5 L 25 -0.5 Z M 76.36640328580853 0.5 L 82.17030657161706 0.5 L 82.17030657161706 3.5 L 89.17030657161706 0 L 82.17030657161706 -3.5 L 82.17030657161706 -0.5 L 76.36640328580853 -0.5 Z"/><text text-anchor="middle" pointer-events="none" font-size="8px" fill="#000000" x="53.58515328580853" y="3" font-family="sans-serif">ACTED_IN</text></g><g class="relationship" transform="translate(194.59060594655216 165.01953703620626) rotate(214.50378986218857)"><path class="outline" fill="#A5ABB6" stroke="none" d="M 25 0.5 L 31.1097829510378 0.5 L 31.1097829510378 -0.5 L 25 -0.5 Z M 76.6722829510378 0.5 L 82.7820659020756 0.5 L 82.7820659020756 3.5 L 89.7820659020756 0 L 82.7820659020756 -3.5 L 82.7820659020756 -0.5 L 76.6722829510378 -0.5 Z"/><text text-anchor="middle" pointer-events="none" font-size="8px" fill="#000000" x="53.8910329510378" y="3" transform="rotate(180 53.8910329510378 0)" font-family="sans-serif">ACTED_IN</text></g><g class="relationship" transform="translate(200.3608162840661 44.13112228614995) rotate(510.89617928100256)"><path class="outline" fill="#A5ABB6" stroke="none" d="M 25 0.5 L 31.150503369143514 0.5 L 31.150503369143514 -0.5 L 25 -0.5 Z M 76.71300336914351 0.5 L 82.86350673828703 0.5 L 82.86350673828703 3.5 L 89.86350673828703 0 L 82.86350673828703 -3.5 L 82.86350673828703 -0.5 L 76.71300336914351 -0.5 Z"/><text text-anchor="middle" pointer-events="none" font-size="8px" fill="#000000" x="53.931753369143514" y="3" transform="rotate(180 53.931753369143514 0)" font-family="sans-serif">ACTED_IN</text></g><g class="relationship" transform="translate(105.26050121794322 -14.030549552586413) rotate(452.64131822593083)"><path class="outline" fill="#A5ABB6" stroke="none" d="M 25 0.5 L 30.130600962052924 0.5 L 30.130600962052924 -0.5 L 25 -0.5 Z M 77.02122596205292 0.5 L 82.15182692410585 0.5 L 82.15182692410585 3.5 L 89.15182692410585 0 L 82.15182692410585 -3.5 L 82.15182692410585 -0.5 L 77.02122596205292 -0.5 Z"/><text text-anchor="middle" pointer-events="none" font-size="8px" fill="#000000" x="53.575913462052924" y="3" transform="rotate(180 53.575913462052924 0)" font-family="sans-serif">DIRECTED</text></g><g class="relationship" transform="translate(2.0327352374045238 40.27321298515603) rotate(391.36901964031176)"><path class="outline" fill="#A5ABB6" stroke="none" d="M 25 0.5 L 35.98242432060772 0.5 L 35.98242432060772 -0.5 L 25 -0.5 Z M 71.75586182060772 0.5 L 82.73828614121544 0.5 L 82.73828614121544 3.5 L 89.73828614121544 0 L 82.73828614121544 -3.5 L 82.73828614121544 -0.5 L 71.75586182060772 -0.5 Z"/><text text-anchor="middle" pointer-events="none" font-size="8px" fill="#000000" x="53.86914307060772" y="3" font-family="sans-serif">WROTE</text></g><g class="relationship" transform="translate(-3.288916791603616 150.01237664933663) rotate(334.1637878127441)"><path class="outline" fill="#A5ABB6" stroke="none" d="M 25 0.5 L 35.993238415023946 0.5 L 35.993238415023946 -0.5 L 25 -0.5 Z M 71.76667591502394 0.5 L 82.75991433004789 0.5 L 82.75991433004789 3.5 L 89.75991433004789 0 L 82.75991433004789 -3.5 L 82.75991433004789 -0.5 L 71.76667591502394 -0.5 Z"/><text text-anchor="middle" pointer-events="none" font-size="8px" fill="#000000" x="53.879957165023946" y="3" font-family="sans-serif">WROTE</text></g></g><g class="layer nodes"><g class="node" transform="translate(100,100.00000213005272)"><circle class="outline" cx="0" cy="0" r="25" fill="#F79767" stroke="#f36924" stroke-width="2px"/><text text-anchor="middle" pointer-events="none" font-family="sans-serif" dy="1.5625" font-size="25" fill="#FFFFFF"/><text text-anchor="middle" pointer-events="none" font-family="sans-serif" dy="1.5625" font-size="25" fill="#FFFFFF"/><text text-anchor="middle" pointer-events="none" font-family="sans-serif" dy="1.5625" font-size="25" fill="#FFFFFF"/><text text-anchor="middle" pointer-events="none" x="0" y="-5" font-size="10px" fill="#FFFFFF" font-family="sans-serif"> Captain</text><text text-anchor="middle" pointer-events="none" x="0" y="5" font-size="10px" fill="#FFFFFF" font-family="sans-serif"> America:</text><text text-anchor="middle" pointer-events="none" x="0" y="15" font-size="10px" fill="#FFFFFF" font-family="sans-serif"> The Fi…</text></g><g class="node" transform="translate(94.26383581405048,214.02611897654037)"><circle class="outline" cx="0" cy="0" r="25" fill="#57C7E3" stroke="#23b3d7" stroke-width="2px"/><text text-anchor="middle" pointer-events="none" font-family="sans-serif" dy="1.5625" font-size="25" fill="#2A2C34"/><text text-anchor="middle" pointer-events="none" font-family="sans-serif" dy="1.5625" font-size="25" fill="#2A2C34"/><text text-anchor="middle" pointer-events="none" x="0" y="0" font-size="10px" fill="#2A2C34" font-family="sans-serif"> Chris</text><text text-anchor="middle" pointer-events="none" x="0" y="10" font-size="10px" fill="#2A2C34" font-family="sans-serif"> Evans</text></g><g class="node" transform="translate(194.59060594655216,165.01953703620626)"><circle class="outline" cx="0" cy="0" r="25" fill="#57C7E3" stroke="#23b3d7" stroke-width="2px"/><text text-anchor="middle" pointer-events="none" font-family="sans-serif" dy="1.5625" font-size="25" fill="#2A2C34"/><text text-anchor="middle" pointer-events="none" font-family="sans-serif" dy="1.5625" font-size="25" fill="#2A2C34"/><text text-anchor="middle" pointer-events="none" x="0" y="0" font-size="10px" fill="#2A2C34" font-family="sans-serif"> Chris</text><text text-anchor="middle" pointer-events="none" x="0" y="10" font-size="10px" fill="#2A2C34" font-family="sans-serif"> Evans</text></g><g class="node" transform="translate(200.3608162840661,44.13112228614995)"><circle class="outline" cx="0" cy="0" r="25" fill="#57C7E3" stroke="#23b3d7" stroke-width="2px"/><text text-anchor="middle" pointer-events="none" font-family="sans-serif" dy="1.5625" font-size="25" fill="#2A2C34"/><text text-anchor="middle" pointer-events="none" x="0" y="5" font-size="10px" fill="#2A2C34" font-family="sans-serif"> Sebastian</text></g><g class="node" transform="translate(105.26050121794322,-14.030549552586413)"><circle class="outline" cx="0" cy="0" r="25" fill="#57C7E3" stroke="#23b3d7" stroke-width="2px"/><text text-anchor="middle" pointer-events="none" font-family="sans-serif" dy="1.5625" font-size="25" fill="#2A2C34"/><text text-anchor="middle" pointer-events="none" font-family="sans-serif" dy="1.5625" font-size="25" fill="#2A2C34"/><text text-anchor="middle" pointer-events="none" x="0" y="0" font-size="10px" fill="#2A2C34" font-family="sans-serif"> Joe</text><text text-anchor="middle" pointer-events="none" x="0" y="10" font-size="10px" fill="#2A2C34" font-family="sans-serif"> Johnston</text></g><g class="node" transform="translate(2.0327352374045238,40.27321298515603)"><circle class="outline" cx="0" cy="0" r="25" fill="#57C7E3" stroke="#23b3d7" stroke-width="2px"/><text text-anchor="middle" pointer-events="none" font-family="sans-serif" dy="1.5625" font-size="25" fill="#2A2C34"/><text text-anchor="middle" pointer-events="none" font-family="sans-serif" dy="1.5625" font-size="25" fill="#2A2C34"/><text text-anchor="middle" pointer-events="none" x="0" y="0" font-size="10px" fill="#2A2C34" font-family="sans-serif"> Stephen</text><text text-anchor="middle" pointer-events="none" x="0" y="10" font-size="10px" fill="#2A2C34" font-family="sans-serif"> McFeely</text></g><g class="node" transform="translate(-3.288916791603616,150.01237664933663)"><circle class="outline" cx="0" cy="0" r="25" fill="#57C7E3" stroke="#23b3d7" stroke-width="2px"/><text text-anchor="middle" pointer-events="none" font-family="sans-serif" dy="1.5625" font-size="25" fill="#2A2C34"/><text text-anchor="middle" pointer-events="none" x="0" y="5" font-size="10px" fill="#2A2C34" font-family="sans-serif"> Christop…</text></g></g></svg>